PathFileType	4	(X/Y/Z)	C:/Users/opensim2020/Desktop/walking_exp_matlab/subject02_walking09_straight_01.trc																																																																																																																												
DataRate	CameraRate	NumFrames	NumMarkers	Units	OrigDataRate	OrigDataStartFrame	OrigNumFrames																																																																																																																								
100	100	9	42	mm	100	782	293																																																																																																																								
Frame#	Time	LFHD			RFHD			LBHD			RBHD			C7			T10			CLAV			STRN			RBAK			LSHO			LUPA			LELB			LFRM			LWRA			LWRB			LFIN			RSHO			RUPA			RELB			RFRM			RWRA			RWRB			RFIN			LASI			RASI			LPSI			RPSI			LTHI			LKNE			LTIB			LANK			LHEE			LTOE			RTHI			RKNE			RTIB			RANK			RHEE			RTOE			*39			*40			*41		
		X1	Y1	Z1	X2	Y2	Z2	X3	Y3	Z3	X4	Y4	Z4	X5	Y5	Z5	X6	Y6	Z6	X7	Y7	Z7	X8	Y8	Z8	X9	Y9	Z9	X10	Y10	Z10	X11	Y11	Z11	X12	Y12	Z12	X13	Y13	Z13	X14	Y14	Z14	X15	Y15	Z15	X16	Y16	Z16	X17	Y17	Z17	X18	Y18	Z18	X19	Y19	Z19	X20	Y20	Z20	X21	Y21	Z21	X22	Y22	Z22	X23	Y23	Z23	X24	Y24	Z24	X25	Y25	Z25	X26	Y26	Z26	X27	Y27	Z27	X28	Y28	Z28	X29	Y29	Z29	X30	Y30	Z30	X31	Y31	Z31	X32	Y32	Z32	X33	Y33	Z33	X34	Y34	Z34	X35	Y35	Z35	X36	Y36	Z36	X37	Y37	Z37	X38	Y38	Z38	X39	Y39	Z39	X40	Y40	Z40	X41	Y41	Z41	X42	Y42	Z42
																																																																																																																															
257	2.56	840.87939	1744.37451	-1052.61426	812.17432	1717.21973	-913.17407	730.72412	1649.55371	-1092.95898	690.6825	1619.11719	-957.65759	674.55646	1514.83569	-1028.87219	616.547	1241.46069	-1027.77502	813.0119	1444.78906	-1029.18335	860.72467	1270.78284	-1026.75903	608.48334	1340.46863	-975.758	763.58136	1497.56763	-1200.10718	807.63525	1311.95459	-1298.06982	863.82904	1181.85425	-1323.03943	947.79224	1077.14197	-1326.47852	1057.07788	1006.80908	-1276.96265	1025.83496	981.9024	-1316.9563	1080.88916	944.92407	-1313.36633	734.52777	1470.90247	-837.39624	674.92212	1285.52954	-765.99182	669.64923	1138.42285	-751.11932	686.05835	1018.44153	-732.25525	725.75311	888.53876	-750.87781	675.64722	888.27246	-723.30414	706.82623	822.27594	-720.13391	834.6676	976.43854	-1172.45825	851.94714	966.33557	-915.1955	631.45715	1022.36707	-1073.78357	632.9657	1019.29968	-959.56726	715.09491	673.12762	-1211.36536	645.91711	480.48877	-1178.61951	545.14923	312.26355	-1172.9458	498.85989	91.84865	-1136.25879	461.34854	70.24217	-1082.8042	647.47125	36.34351	-1158.3219	832.80597	667.08319	-832.03674	906.96777	473.28806	-872.0686	935.02771	289.15225	-861.29535	998.61847	104.18066	-887.59882	997.58795	42.2784	-947.93073	1155.41565	100.14006	-851.56213	711.71021	1786.15161	-987.18311	2845.35278	1033.96912	-3360.36108	NaN	NaN	NaN
258	2.57	849.73932	1743.57874	-1049.70764	820.94757	1716.30359	-910.2298	739.71399	1648.64612	-1090.1908	700.05658	1617.98596	-954.94891	683.68854	1513.85303	-1026.27246	626.07318	1240.31873	-1025.19739	822.21637	1443.97534	-1026.58875	870.29199	1270.09143	-1024.47522	617.82251	1339.30347	-973.12018	772.698	1496.82947	-1197.46802	816.0993	1311.09717	-1295.30798	871.61407	1180.6936	-1320.44946	955.41968	1075.67676	-1323.85327	1064.86255	1005.54199	-1274.68274	1033.33044	980.49835	-1314.32605	1088.34241	943.42529	-1310.94507	743.66205	1469.75525	-834.80505	683.60461	1284.40222	-763.77112	678.06897	1137.30017	-749.15631	694.3432	1017.2431	-730.33746	734.0105	887.41681	-748.84698	683.79846	887.15356	-721.45667	714.91797	821.06537	-718.46057	843.89746	975.64819	-1170.48755	862.16144	965.18268	-913.50519	641.02698	1021.50775	-1071.14697	642.91742	1018.43805	-956.90106	722.95538	672.75403	-1210.22253	652.72803	480.46701	-1177.80029	549.60632	313.7879	-1172.68628	499.79944	93.94862	-1136.68323	462.1358	72.94453	-1083.59705	647.53174	36.31199	-1158.53577	844.64941	666.65051	-829.83209	917.45294	472.50119	-870.87665	943.19348	287.58109	-861.4292	1004.43842	102.15306	-888.90125	1003.24561	40.63643	-949.90283	1160.48181	95.99699	-851.30127	720.29785	1785.12756	-984.63849	2845.30029	1034.20203	-3360.24097	NaN	NaN	NaN
259	2.58	858.52332	1742.80481	-1046.69434	829.7876	1715.44275	-907.13049	748.66534	1647.73145	-1087.28796	708.56146	1617.07153	-952.1944	692.78436	1512.82556	-1023.46588	635.73688	1239.16028	-1022.45239	831.46783	1443.16907	-1023.87592	879.78906	1269.33765	-1021.96613	626.95868	1338.27405	-970.75159	781.80988	1496.07507	-1194.71436	824.56396	1310.38428	-1292.75623	879.14856	1179.45203	-1317.75098	962.59778	1074.32764	-1321.27258	1072.16235	1003.95715	-1272.32068	1040.37439	978.85162	-1311.75183	1095.32263	941.62567	-1308.41321	752.95178	1468.65796	-832.08417	692.67926	1283.33716	-761.34302	687.22296	1136.20618	-746.90149	703.04919	1016.15173	-728.13647	742.56787	886.19757	-746.68353	692.25873	886.09363	-719.49127	723.33405	819.89569	-716.32318	853.34125	974.83264	-1168.71045	872.63092	964.18951	-911.67853	650.8667	1020.59406	-1068.36938	653.03186	1017.50653	-954.25299	731.11536	672.3399	-1208.94922	659.82104	480.54044	-1177.11096	554.19507	315.47635	-1172.38452	500.90073	96.34239	-1137.16101	462.89264	75.95314	-1084.37878	647.64972	36.21164	-1158.68994	857.01886	666.34369	-827.51044	927.80121	471.49292	-869.25299	950.49341	285.72269	-861.4657	1008.79388	99.7236	-890.22369	1007.24231	38.55327	-951.7915	1164.08289	91.18758	-851.07562	729.09406	1783.98267	-981.58539	2845.84009	1034.10608	-3357.1897	NaN	NaN	NaN
260	2.59	867.32245	1742.0166	-1043.6123	838.55273	1714.45105	-904.28119	757.65033	1646.78235	-1084.30188	717.72327	1615.97693	-949.3515	701.92651	1511.69104	-1020.51074	645.49164	1237.88098	-1019.57861	840.76654	1442.38745	-1021.05841	889.6026	1268.63696	-1019.43365	636.93066	1336.80188	-967.7276	790.90918	1495.28699	-1191.89319	832.71271	1309.46936	-1289.84998	886.40729	1178.15088	-1314.86047	969.3974	1072.57727	-1318.43713	1078.99182	1002.04486	-1269.87158	1046.90979	976.90997	-1309.06067	1101.72559	939.51001	-1305.89368	762.24945	1467.6134	-829.25049	701.70624	1282.17395	-758.72528	696.16528	1135.05005	-744.60449	711.77014	1015.05872	-725.95715	751.49579	885.09833	-744.40759	701.05627	884.94586	-717.32996	731.99408	818.76337	-713.8634	863.09326	974.09418	-1166.62585	883.45856	963.33447	-909.67114	661.01276	1019.59021	-1065.54834	663.3772	1016.42108	-951.52167	739.5448	671.97235	-1207.71655	667.26898	480.42554	-1176.33728	558.90436	317.3569	-1172.00012	502.03528	98.86234	-1137.61182	463.76047	79.01134	-1084.77197	647.71222	36.22972	-1158.90808	869.92346	665.98682	-825.26147	937.84106	470.33566	-867.44562	956.80713	283.56671	-861.31195	1011.92926	96.89214	-891.67035	1009.83496	36.304	-953.71063	1166.35803	85.78439	-850.94788	737.75537	1783.11804	-978.46918	2845.32642	1034.09302	-3360.38867	NaN	NaN	NaN
261	2.6	876.1051	1741.21069	-1040.53613	847.32245	1713.60559	-900.92505	766.58862	1645.77625	-1081.20251	726.35193	1615.02161	-946.20428	711.11389	1510.54907	-1017.49609	655.32251	1236.5127	-1016.52338	850.07727	1441.5885	-1018.13287	899.40491	1267.95544	-1016.70288	646.19501	1335.422	-964.5752	799.78839	1494.43176	-1188.91101	840.58099	1308.38318	-1286.64148	893.37811	1176.80676	-1311.94434	975.74506	1070.75061	-1315.49475	1085.30566	999.83868	-1267.37659	1052.94604	974.76801	-1306.37146	1107.56287	937.05566	-1303.24878	771.64905	1466.58044	-826.34247	711.59149	1281.36914	-755.98285	705.27856	1134.10706	-742.16058	720.99384	1014.01666	-723.55664	760.59369	884.02942	-742.05188	709.93054	883.79968	-715.15741	740.97308	817.6662	-711.62262	873.09058	973.3551	-1164.43738	894.44196	962.6438	-907.40302	671.56165	1018.48749	-1062.57642	673.96167	1015.20496	-948.7002	748.25989	671.78534	-1206.44324	674.93262	480.84314	-1175.87976	563.84644	319.42679	-1171.46973	503.30487	101.63724	-1137.94836	465.01373	82.70475	-1085.10559	647.80872	36.2713	-1159.13831	883.0069	665.65393	-823.06201	947.43976	469.02353	-865.5069	962.76752	281.3595	-861.26569	1013.90247	94.01092	-892.90344	1010.97272	34.06828	-954.6723	1167.6886	79.75762	-850.99524	746.47852	1781.84558	-975.38135	2845.95874	1034.38574	-3357.01855	NaN	NaN	NaN
262	2.61	884.81335	1740.35144	-1037.30054	856.10492	1712.66541	-897.68378	775.4751	1644.69775	-1078.04736	735.33997	1613.6488	-943.03186	720.15973	1509.32117	-1014.34155	665.34283	1235.0415	-1013.35138	859.43292	1440.74463	-1015.1391	909.33807	1267.30603	-1013.84137	655.96179	1333.81128	-961.41193	808.91595	1493.42554	-1185.80151	848.5448	1307.41162	-1283.55347	900.20361	1175.43457	-1308.91113	981.97052	1068.8208	-1312.80347	1091.2085	997.27283	-1264.78613	1058.52124	972.34735	-1303.62048	1112.88977	934.20752	-1300.53955	781.07672	1465.48828	-823.26666	719.58795	1279.89429	-753.06165	714.47955	1132.922	-739.69897	730.12787	1012.84863	-721.02893	769.8609	882.91821	-739.49719	719.25616	882.88776	-712.74512	750.19678	816.51709	-709.19098	883.44586	972.6701	-1162.11023	905.60785	962.03845	-904.91669	682.25836	1017.26434	-1059.49292	684.68793	1013.92139	-945.79932	757.16779	671.32782	-1205.03455	682.97687	480.99194	-1175.1344	569.04529	321.59634	-1170.84619	504.71246	104.64196	-1138.28894	466.1777	86.30556	-1085.62927	647.89801	36.13392	-1159.13062	895.62494	665.04346	-821.04321	956.4845	467.27399	-863.52325	968.05206	278.8533	-861.16187	1016.2962	91.423	-893.76984	1011.48914	33.85056	-955.64337	1169.51904	72.54533	-851.12976	755.09387	1780.72498	-972.11389	2845.99561	1034.25293	-3357.0332	NaN	NaN	NaN
263	2.62	893.57361	1739.6853	-1033.9906	864.87604	1711.83435	-894.3974	784.46393	1643.7616	-1074.82495	744.61798	1612.54382	-939.617	729.11066	1508.12708	-1011.11719	675.2478	1233.8324	-1009.9668	868.8396	1439.96399	-1012.03802	919.29065	1266.82544	-1010.83337	665.74664	1332.57947	-958.23022	817.8728	1492.57336	-1182.68176	856.52069	1306.47705	-1280.53247	906.84497	1173.98828	-1305.84387	987.7077	1066.72913	-1309.85217	1096.64966	994.39252	-1262.11853	1063.68896	969.6665	-1300.82568	1117.74158	931.10089	-1297.82239	790.48621	1464.4823	-820.0611	729.73639	1278.97241	-750.15778	723.9245	1131.7793	-736.8786	739.58588	1011.63416	-718.39618	779.45007	881.75024	-736.86292	728.75458	881.45966	-710.37634	759.66638	815.33063	-706.74738	894.1366	971.93347	-1159.65552	916.49365	961.53491	-902.38776	692.8078	1015.99536	-1056.27734	695.50031	1012.58502	-942.79565	766.43671	670.88599	-1203.53027	691.42883	481.18384	-1174.28027	574.60828	323.93018	-1170.22388	506.29385	107.87236	-1138.81396	467.95572	90.41571	-1086.37122	647.99591	36.08075	-1159.37415	907.55341	664.59387	-818.76068	964.76416	465.8728	-860.95575	974.55389	277.11719	-861.78638	1021.04742	91.1367	-893.1109	1014.83655	36.26649	-955.34595	1174.13232	63.99246	-848.63007	763.82935	1779.77966	-968.6225	2845.92261	1034.18774	-3357.1792	NaN	NaN	NaN
264	2.63	902.22552	1739.48682	-1030.46033	873.74316	1711.58972	-890.97003	793.47119	1643.2605	-1071.45728	753.46368	1611.89539	-936.44684	738.05573	1507.2561	-1007.76782	685.11047	1233.37073	-1006.36938	878.25574	1439.56384	-1008.90649	929.10095	1266.72107	-1007.80768	675.56177	1331.88037	-955.19904	826.74371	1491.88159	-1179.65527	864.15527	1305.3363	-1277.29468	913.28558	1172.521	-1302.71155	993.19092	1064.47083	-1306.81763	1101.65295	991.21375	-1259.42322	1068.38916	966.80414	-1298.06177	1122.04272	927.66895	-1295.03662	799.96851	1463.56335	-816.73578	739.27881	1277.91638	-746.87714	733.56726	1130.66418	-734.00043	749.29053	1010.52911	-715.67773	789.29669	880.68829	-734.22595	738.55243	880.3244	-707.88611	769.67902	814.26807	-704.22864	905.10394	971.23199	-1157.07324	927.17273	961.26898	-899.68091	703.3299	1014.9679	-1053.12781	706.50403	1011.68939	-939.7934	776.19867	670.57861	-1201.90857	700.48456	481.49963	-1173.30225	580.578	326.53543	-1169.47974	508.39639	111.7342	-1139.45959	469.94839	95.302	-1086.83325	648.1499	36.10636	-1159.72876	918.00421	665.18292	-815.99133	973.50281	465.6236	-857.97888	982.73816	277.20874	-860.07037	1027.33142	91.35331	-889.48468	1017.60077	38.79909	-952.7876	1179.73401	58.08764	-846.91119	772.39618	1779.19043	-965.13202	2845.27466	1034.20923	-3360.3269	NaN	NaN	NaN
265	2.64	910.87488	1739.63428	-1026.73315	882.38599	1711.69128	-887.4516	802.39526	1643.22437	-1068.03333	762.66754	1611.81067	-932.90051	747.0567	1506.95569	-1004.49451	695.04199	1232.91003	-1003.1377	887.46045	1439.55701	-1005.64703	938.85535	1266.91541	-1004.57703	685.24133	1331.4231	-951.72168	835.37506	1491.56775	-1176.69043	871.60388	1304.1925	-1273.92407	919.62274	1171.03052	-1299.36353	998.4967	1062.28809	-1304.01208	1106.25146	987.86792	-1256.71265	1072.56689	963.80542	-1295.21118	1125.87073	924.08746	-1292.35449	809.33673	1462.78125	-813.15393	749.1499	1276.92822	-743.52728	743.79388	1129.52051	-730.99866	759.33386	1009.40002	-712.77338	799.3667	879.75275	-731.5799	748.66022	879.34796	-705.24652	779.79065	813.25043	-701.7337	916.43439	970.55255	-1154.09888	937.85986	961.31085	-896.80554	714.08081	1014.22565	-1050.12268	717.61267	1011.59216	-936.78845	786.47742	670.47974	-1200.1106	710.16022	482.06943	-1172.40698	587.0918	329.67209	-1168.94409	510.6452	116.1209	-1140.21741	472.37228	100.60764	-1087.62549	648.43231	36.10203	-1159.77625	927.61658	666.00696	-812.6355	983.34003	466.74625	-854.58466	992.06378	278.53674	-854.23737	1033.12341	90.81802	-886.01337	1019.95032	40.22781	-950.19171	1184.89526	53.46	-846.59344	780.80182	1779.00391	-961.87598	2845.3103	1034.14465	-3360.37598	NaN	NaN	NaN
